<svg id="auto_graph_black_24dp" xmlns="http://www.w3.org/2000/svg" width="24" height="24" viewBox="0 0 24 24">
  <rect id="Rectangle_17724" data-name="Rectangle 17724" width="24" height="24" fill="none"/>
  <g id="Group_10217" data-name="Group 10217">
    <path id="Path_47146" data-name="Path 47146" d="M14.06,9.94,12,9l2.06-.94L15,6l.94,2.06L18,9l-2.06.94L15,12ZM4,14l.94-2.06L7,11l-2.06-.94L4,8l-.94,2.06L1,11l2.06.94ZM8.5,9,9.59,6.59,12,5.5,9.59,4.41,8.5,2,7.41,4.41,5,5.5,7.41,6.59Zm-4,11.5,6-6.01,4,4L23,8.93,21.59,7.52,14.5,15.49l-4-4L3,19Z" fill="#616161"/>
  </g>
</svg>
