<svg xmlns="http://www.w3.org/2000/svg" width="24" height="24" viewBox="0 0 24 24">
  <g id="Group_8570" data-name="Group 8570" transform="translate(-2588 57)">
    <rect id="Rectangle_14167" data-name="Rectangle 14167" width="24" height="24" transform="translate(2588 -57)" fill="#fff"/>
    <path id="notification_important-24px_1_" data-name="notification_important-24px (1)" d="M10.01,21.01a1.99,1.99,0,0,0,3.98,0ZM12,6a5,5,0,0,1,5,5v7H7V11A5,5,0,0,1,12,6Zm0-4.5A1.5,1.5,0,0,0,10.5,3V4.17A6.993,6.993,0,0,0,5,11v6L3,19v1H21V19l-2-2V11a6.993,6.993,0,0,0-5.5-6.83V3A1.5,1.5,0,0,0,12,1.5ZM11,8h2v4H11Zm0,6h2v2H11Z" transform="translate(2588 -57.25)" fill="#5f6368"/>
  </g>
</svg>
