<svg id="work_history_black_24dp" xmlns="http://www.w3.org/2000/svg" width="24" height="24" viewBox="0 0 24 24">
  <g id="Group_10067" data-name="Group 10067">
    <rect id="Rectangle_17510" data-name="Rectangle 17510" width="24" height="24" fill="none"/>
  </g>
  <g id="Group_10069" data-name="Group 10069">
    <g id="Group_10068" data-name="Group 10068">
      <path id="Path_46690" data-name="Path 46690" d="M4,19V8H20v3.29a6.87,6.87,0,0,1,2,.97V8a1.993,1.993,0,0,0-2-2H16V4a1.993,1.993,0,0,0-2-2H10A1.993,1.993,0,0,0,8,4V6H4A1.985,1.985,0,0,0,2.01,8L2,19a1.993,1.993,0,0,0,2,2h7.68a6.724,6.724,0,0,1-.6-2ZM10,4h4V6H10Z" fill="#616161"/>
      <path id="Path_46691" data-name="Path 46691" d="M18,13a5,5,0,1,0,5,5A5,5,0,0,0,18,13Zm1.65,7.35L17.5,18.2V15h1v2.79l1.85,1.85Z" fill="#616161"/>
    </g>
  </g>
</svg>
